<svg width="450" height="538" viewBox="0 0 450 538" fill="none" xmlns="http://www.w3.org/2000/svg">
<path fill-rule="evenodd" clip-rule="evenodd" d="M235.38 0.290869C293.366 5.67143 312.567 81.7172 352.208 124.377C382.047 156.488 423.524 177.99 438.716 219.109C454.249 261.154 454.224 309.455 435.656 350.25C418.067 388.892 373.061 402.953 341.908 431.799C304.6 466.343 285.439 526.786 235.38 535.692C184.661 544.716 131.922 513.411 97.2251 475.331C65.41 440.414 75.3145 386.827 59.2605 342.401C42.3574 295.626 -7.62004 258.003 0.988622 209.018C9.71602 159.357 64.0061 134.661 101.662 101.129C144.399 63.0707 178.399 -4.99653 235.38 0.290869Z" fill="#C4C4C4"/>
</svg>
