<svg width="100" height="95" viewBox="0 0 100 95" fill="none" xmlns="http://www.w3.org/2000/svg">
<path d="M46.7396 88.2085L39.8539 61.2915L40.8973 60.8742L47.783 87.9998L46.7396 88.2085Z" fill="#ADB3BA"/>
<path d="M20.866 88.2085L19.8226 87.9997L23.9959 58.9962L25.0391 59.2047L20.866 88.2085Z" fill="#ADB3BA"/>
<path d="M52.3734 88.2085L45.2791 61.2915L46.3224 60.8742L53.4169 87.9998L52.3734 88.2085Z" fill="#ADB3BA"/>
<path d="M26.4998 88.2085L25.4564 87.9997L29.421 58.9962L30.4642 59.2047L26.4998 88.2085Z" fill="#ADB3BA"/>
<path d="M19.614 58.1616C19.614 58.3703 23.3699 61.2914 29.8384 62.5434C36.3069 63.7954 52.3736 61.2915 55.2948 59.2048C58.2159 57.1181 55.2948 46.268 52.9996 44.39C50.7044 42.5121 48.8265 43.3468 46.3226 39.3822C44.0274 35.4176 29.0039 32.4965 24.4133 35.0004C19.8228 37.5043 13.5628 46.6852 19.614 58.1616Z" fill="#66C6B9"/>
<path d="M28.169 81.5315C28.169 81.5315 28.3778 79.0276 28.3778 77.1496C28.3778 75.2717 33.3856 73.6025 33.3856 73.6025C33.3856 73.6025 33.8028 81.1142 34.2203 82.5749C34.6377 84.0356 34.6375 84.0356 34.6375 84.0356C34.6375 84.0356 29.421 86.3306 28.169 81.5315Z" fill="#E8EAE9"/>
<path d="M28.169 80.6968C28.169 80.6968 28.5863 82.366 30.2557 82.992C31.9249 83.4092 33.8028 81.5313 34.0116 81.114C34.0116 81.114 34.4288 84.0352 35.8895 85.0786C37.3502 86.1219 39.4366 88.6258 39.4366 88.6258C39.4366 88.6258 37.9759 90.295 35.472 90.0864C32.9681 89.8777 29.421 87.5825 28.795 86.5393C28.169 85.4959 27.1258 84.4526 28.169 80.6968Z" fill="#344A5E"/>
<path d="M49.035 87.7912L48.6178 88.4172V89.2519L51.1217 89.8779V89.4606C51.1217 89.4606 52.3736 89.2519 53.4169 90.0866C54.4601 90.9213 55.5035 91.7558 56.964 91.7558C58.216 91.7558 59.8852 91.5471 60.0939 90.7126C60.5112 90.0864 52.5822 87.7912 49.035 87.7912Z" fill="#415A6B"/>
<path d="M48.8263 88.4172C48.8263 88.4172 48.2003 85.2873 49.4523 83.8266C49.4523 83.8266 49.2435 84.4526 49.8695 84.6613C50.2868 84.87 51.3302 84.2441 52.9994 83.4094C54.6686 82.5747 56.1293 83.4094 56.1293 83.4094C56.1293 83.4094 57.7985 86.3305 58.4245 86.9565C59.2592 87.5825 63.0151 89.2517 64.0583 89.2517C65.1015 89.2517 64.267 92.1729 61.7631 91.9643C59.2592 91.7556 55.712 91.1296 54.2514 89.8777C52.5821 88.6257 48.8263 88.4172 48.8263 88.4172Z" fill="#344A5E"/>
<path d="M96.8179 94.2596H62.3891C61.3459 94.2596 60.5111 93.8423 59.8852 93.0076C59.2592 92.3816 59.0505 91.3384 59.0505 90.295L63.4323 61.5L83.6723 61.9173L99.5305 89.0432C100.156 90.0865 100.156 91.3384 99.5305 92.3818C99.1133 93.6336 98.0698 94.2596 96.8179 94.2596ZM64.267 62.5434L60.0939 90.5037C60.0939 91.1297 60.0939 91.9644 60.7199 92.3817C61.1371 93.0076 61.7631 93.2164 62.5978 93.2164H97.0266C97.8613 93.2164 98.6958 92.7991 99.1133 91.9644C99.5305 91.1297 99.5305 90.2952 99.1133 89.6692L83.4638 62.9609L64.267 62.5434Z" fill="#CED6E0"/>
<path d="M21.2833 38.3389C22.6662 38.3389 23.7872 36.6574 23.7872 34.5831C23.7872 32.5088 22.6662 30.8272 21.2833 30.8272C19.9004 30.8272 18.7794 32.5088 18.7794 34.5831C18.7794 36.6574 19.9004 38.3389 21.2833 38.3389Z" fill="#344A5E"/>
<path d="M20.4486 56.2836C20.4486 56.2836 23.7872 60.8741 25.8736 61.2914C25.8736 61.2914 24.6217 64.63 25.8736 69.2204C27.1256 73.811 28.3776 78.4013 28.3776 78.4013C28.3776 78.4013 30.0468 78.1926 31.2987 77.9841C32.5507 77.7754 34.6373 76.7321 34.6373 75.2714C34.6373 73.8108 34.6373 70.0549 34.6373 67.551C34.6373 65.0471 34.4286 63.5864 34.8461 62.5432C35.2633 61.7085 34.6373 60.874 36.5153 60.4565C38.3932 60.0392 44.8617 60.0392 44.8617 60.0392L54.0427 61.2912C54.0427 61.2912 52.1647 73.1848 51.956 74.4367C51.956 74.4367 52.7907 74.228 54.2512 75.0627C55.7117 75.8974 58.0071 76.5234 58.0071 76.5234C58.0071 76.5234 61.3457 69.6376 61.9716 67.551C62.5976 65.4643 65.1015 58.996 65.5188 56.9094C66.1448 54.8227 66.1448 51.2756 62.3889 49.8149C58.633 48.3542 55.0859 48.3542 55.0859 48.3542L25.0391 46.6852L20.4486 56.2836Z" fill="#2A3F4F"/>
<path d="M30.0469 18.3077C30.0469 18.3077 30.6729 20.1856 30.8817 20.8116C31.0904 21.4376 31.9249 25.8194 31.9249 25.8194L36.9327 26.8626L38.3934 23.524C38.3934 23.524 39.2281 23.1068 39.4366 21.2288C39.6453 19.3509 39.6453 17.6817 39.6453 16.221C39.6453 14.7603 39.2281 12.4651 39.2281 12.4651C39.2281 12.4651 38.8106 10.3785 38.1847 9.54397C37.5587 8.70946 29.421 10.5872 29.0037 12.2566C28.5865 13.926 29.8382 17.6817 30.0469 18.3077Z" fill="#FFD15C"/>
<path d="M31.5076 23.9415C31.2989 22.6895 31.0904 21.4376 30.8817 21.0203C30.6729 20.6031 30.4644 19.5596 30.2557 18.9337C30.4644 19.3509 30.4644 19.7684 30.6729 20.3943C30.8817 21.4376 31.2989 22.6893 31.5076 23.9415Z" fill="#FFD15C"/>
<path d="M36.9327 26.8626L38.1846 23.9415C38.1846 23.9415 36.724 24.9847 34.846 24.3587C32.9681 23.7327 30.8814 21.2288 30.8814 21.2288C30.8814 21.2288 33.1768 25.4019 36.9327 26.8626Z" fill="#F7B64C"/>
<path d="M34.846 25.1934H35.472L39.6451 24.7762L46.1136 47.3114C46.1136 47.3114 41.5231 51.902 37.35 52.1105C33.1768 52.319 26.2911 49.8151 25.0391 49.1891C23.9959 48.5632 30.0469 24.5673 30.0469 24.5673L34.846 25.1934Z" fill="#8AD7F8"/>
<path d="M35.472 27.6973L36.098 28.3233C36.098 28.3233 36.5153 29.784 36.724 30.2012C36.724 30.6185 40.2711 54.8231 40.2711 54.8231L38.1847 57.7443L35.472 55.4491C35.472 55.4491 33.3854 34.1658 33.8028 32.2879C34.0115 30.41 34.6375 28.532 34.6375 28.532L35.472 27.6973Z" fill="#E8EAE9"/>
<path d="M34.0115 25.6107L34.8462 25.402H35.4722L36.9329 26.028C36.9329 26.028 36.0982 27.6972 36.3069 28.5319C35.6809 28.3231 35.2637 28.3231 34.6377 28.7406C34.6377 28.7406 34.2204 26.8627 33.5945 26.4454C32.7596 26.028 34.0115 25.6107 34.0115 25.6107Z" fill="#E8EAE9"/>
<path d="M29.6297 17.8902C29.6297 17.8902 28.3777 18.0989 26.4998 18.5162C24.6219 18.9334 20.6573 19.3509 20.6573 19.3509C20.6573 19.3509 21.7005 21.0201 21.492 23.524C21.492 26.2366 22.9526 28.5318 22.9526 30.201C22.9526 31.8702 20.24 47.1025 18.5708 50.4411C16.9016 53.7797 15.8582 55.2402 15.6494 58.1615C15.2322 61.0827 14.3975 65.4645 15.6494 66.2992C16.9014 67.1339 18.5706 63.1694 20.866 59.8307C23.1612 56.4921 29.6297 43.9726 30.2557 40.4254C30.8816 36.6695 29.6297 17.8902 29.6297 17.8902Z" fill="#344A5E"/>
<path d="M24.4131 41.4689L25.6651 42.0948C25.6651 42.0948 27.1258 42.5121 26.4998 37.5043C26.4998 37.5043 25.2478 37.9215 24.8306 38.339C24.4131 38.7562 24.4131 41.4689 24.4131 41.4689Z" fill="#ADB3BA"/>
<path d="M31.7162 25.8192V29.1578C31.7162 31.453 30.047 40.4254 30.047 40.4254C30.047 40.4254 30.2557 35.6263 29.6297 34.1656C29.2125 32.705 26.7085 26.8626 26.7085 26.8626L28.3778 25.8194L27.1258 24.9847L29.421 18.0989C29.421 18.0989 29.6297 18.0989 29.6297 18.3077V18.5164C29.6297 18.5164 30.2557 20.3943 30.4644 21.0203C30.8817 21.4376 31.7162 24.9847 31.7162 25.8192Z" fill="#415A6B"/>
<path d="M31.7162 28.9491V29.1578C31.7162 31.453 30.047 40.4254 30.047 40.4254C30.047 40.4254 30.2557 35.6263 29.6297 34.1656C29.2125 32.705 26.7085 26.8626 26.7085 26.8626L28.3778 25.8194L27.1258 24.9847L29.421 18.0989C29.6297 18.3077 29.8382 18.5162 29.8382 18.9336C30.047 19.3509 30.047 19.7683 30.2555 20.3943C30.6728 21.6463 30.8815 22.6895 31.0902 23.9415C31.7162 25.6107 31.7162 27.2799 31.7162 28.9491Z" fill="#415A6B"/>
<path d="M25.2478 38.1303C25.2478 38.1303 26.917 38.339 26.917 38.1303C26.917 37.713 27.1258 37.5043 27.543 37.087C27.9603 36.8783 28.3777 36.8783 28.795 36.8783C29.4209 36.8783 30.6729 36.8783 30.8816 37.2955C31.2989 37.7128 30.8816 38.3388 30.2557 38.1303C29.6297 38.1303 29.2124 38.1303 29.0037 38.339C28.795 38.5477 28.795 38.5477 28.795 38.5477C28.795 38.5477 30.2557 38.965 30.8816 38.7564C31.5076 38.5477 32.7596 38.5477 33.3855 38.5477C34.0115 38.7564 34.6375 38.965 34.4288 39.3824C34.4288 39.3824 34.846 39.5911 34.6375 40.0084C34.4288 40.4256 33.3855 40.8431 32.1336 40.8431C30.6729 40.8431 28.5864 41.2603 27.3345 41.0518C26.0825 41.0518 24.2046 40.6346 22.5354 40.4258C20.8662 40.4258 20.8662 40.4258 20.8662 40.4258L25.2478 38.1303Z" fill="#FFD15C"/>
<path d="M30.8817 17.2642C31.2989 18.3075 31.2989 19.3509 30.8817 19.5594C30.2557 19.7681 29.6297 19.1422 29.0037 18.0987C28.5865 17.0555 28.5865 16.0121 29.0037 15.8035C29.6297 15.595 30.2557 16.221 30.8817 17.2642Z" fill="#FFD15C"/>
<path d="M54.8774 36.6696C54.8774 38.1303 54.4601 39.1735 54.4601 39.1735L51.3302 39.5907C51.3302 39.5907 51.1215 35.4176 47.3656 34.5829C47.1569 33.1222 46.9484 31.8703 46.9484 31.0358C46.9484 27.6972 49.661 20.8114 49.661 20.8114C49.661 20.8114 50.913 21.6461 50.7042 23.1066C50.4955 24.5673 51.5389 25.1932 51.5389 26.0278C51.5389 26.8623 51.3302 27.071 51.5389 27.9057C51.9562 28.5319 55.0861 35.2091 54.8774 36.6696Z" fill="#415A6B"/>
<path d="M54.8774 48.3546C54.8774 48.3546 51.1215 48.7719 49.6608 48.9806C47.9916 49.1893 47.1569 49.1893 46.5309 48.5633C45.6962 47.9374 42.1491 40.6343 42.1491 40.6343C42.1491 40.6343 40.8971 34.7918 40.6884 29.3667C40.6884 25.8196 39.8537 21.855 39.4364 19.5598C39.4364 18.9338 39.4364 18.3079 39.4364 17.6819C40.2711 17.8906 42.5663 18.5166 44.2355 18.9338C46.3222 19.5598 49.8693 20.3945 49.8693 20.3945C49.8693 20.3945 47.1567 27.2803 47.1567 30.6189C47.1567 33.9575 49.2434 45.4336 50.0779 46.2683C51.1215 47.5199 54.8774 48.3546 54.8774 48.3546Z" fill="#344A5E"/>
<path d="M47.1571 39.1734C47.1571 39.1734 45.6964 38.9647 46.3224 34.3743C46.3224 34.3743 47.1571 33.9571 48.2003 34.5831C49.2435 35.209 50.0782 37.087 49.661 37.9217C49.2435 38.7562 47.5743 39.1734 47.1571 39.1734Z" fill="#CED6E0"/>
<path d="M44.6532 46.0593C44.4445 45.8506 41.732 42.3034 40.4801 37.7128C39.6454 34.583 39.0194 27.9059 38.6021 23.5241C38.8108 23.1068 39.0194 22.6894 39.2281 21.6461C39.2281 20.8114 39.4368 20.1855 39.4368 19.351L42.358 24.5675L41.732 25.8195L43.6099 26.0282C43.6099 26.0282 42.5667 34.3746 42.7752 36.6698C42.9838 38.7563 44.6532 45.642 44.6532 46.0593Z" fill="#415A6B"/>
<path d="M47.1571 34.1657L46.3224 34.3744C46.3224 34.3744 45.2792 34.3744 44.6532 34.1657C44.0272 33.957 42.7753 33.331 42.1493 33.7484C41.5233 33.9571 40.2714 36.2523 40.2714 36.2523L45.2792 38.965C45.2792 38.965 45.9052 38.7562 46.1139 38.5477C46.3226 38.339 47.3658 38.965 48.8265 38.5477C50.4957 38.339 50.4957 38.339 50.4957 38.339C50.4957 38.339 49.661 36.2523 49.2438 35.4178C48.8263 34.5831 47.7831 34.3744 47.1571 34.1657Z" fill="#FFD15C"/>
<path d="M71.3615 10.1698L73.0307 11.4218V11.839L69.4836 21.0201C69.4836 21.0201 68.4403 19.7682 67.6056 19.5595C66.7709 19.3507 65.3105 20.8114 64.267 20.6027C63.2238 20.394 62.8063 19.9767 62.5978 19.5595C62.3891 18.9335 60.7199 18.9335 61.5546 18.0988C61.5546 18.0988 60.9286 18.3075 60.9286 17.6815C60.9286 17.0556 60.3026 16.8468 60.3026 16.8468C60.3026 16.8468 58.4247 17.2641 58.6334 16.2209C58.8421 15.1776 59.2594 13.9257 59.2594 13.9257C59.2594 13.9257 59.0507 13.7169 58.6334 13.5084C58.2162 13.2997 56.5468 11.2132 56.7555 9.33529C56.9642 7.45736 64.2672 5.3707 67.1884 5.57942C69.9008 5.99667 71.3615 10.1698 71.3615 10.1698Z" fill="#FFD15C"/>
<path d="M63.4325 73.185C63.4325 73.185 65.5192 78.1928 67.3971 79.2361C69.2751 80.2793 69.901 81.3227 69.901 81.3227L61.7633 84.8699C61.7633 84.8699 61.7633 81.9487 60.7201 79.862C59.6769 77.5668 57.1729 75.2715 57.1729 75.2715L63.4325 73.185Z" fill="#E8EAE9"/>
<path d="M62.1805 86.9565C62.1805 86.9565 59.6766 88.4172 58.0074 88.8345C56.3382 89.2517 54.4603 89.8777 54.4603 91.1296C54.4603 92.3816 56.5469 93.0076 58.6334 93.0076C60.7201 93.0076 64.2672 92.3816 65.3104 91.1296C66.3537 89.8777 68.0231 88.6257 68.0231 88.6257L68.8578 89.4604C68.8578 89.4604 73.0309 87.3738 73.4483 86.1218C74.0743 84.8699 73.6571 84.8699 73.6571 84.8699L72.6138 83.4092L62.1805 86.9565Z" fill="#344A5E"/>
<path d="M61.3459 83.4092C61.3459 83.4092 62.5978 82.1573 64.893 82.1573C67.1882 82.1573 69.2749 80.488 69.2749 80.488C69.2749 80.488 70.9441 80.9053 72.6135 83.2007C72.6135 83.2007 69.9008 84.4526 68.2316 85.7046C66.5624 87.1653 65.7277 87.7912 64.267 88.2085C62.5978 88.8345 55.5034 89.0432 54.4601 91.1297C54.4601 91.1297 54.2514 90.295 56.1293 89.4605C58.0073 88.4172 60.0939 87.7912 60.5112 86.7478C61.1372 85.2873 61.3459 83.4092 61.3459 83.4092Z" fill="#415A6B"/>
<path d="M55.5033 53.1537C55.5033 53.1537 47.1569 54.1969 45.4877 55.4489C43.8185 56.7008 43.6097 59.2047 44.027 60.6654C44.4442 61.9174 58.0072 77.7756 59.2592 78.4015C59.2592 78.4015 60.3024 76.9409 61.9718 75.8976C63.641 74.8544 64.0585 73.3937 64.0585 73.3937C64.0585 73.3937 58.4247 66.7167 56.7555 64.4213C55.0863 62.1259 54.4603 61.9174 54.4603 61.9174L62.8067 57.5355L55.5033 53.1537Z" fill="#344A5E"/>
<path d="M91.8101 91.7556H59.6766C58.8419 91.7556 58.0074 91.3384 57.3815 90.7124C56.7555 90.0864 56.5468 89.0432 56.7555 88.2085L60.7201 61.2914L79.7081 61.7087L94.5227 86.9565C95.1487 87.9998 95.1487 89.0432 94.5227 90.0864C93.8967 91.1297 92.8535 91.7556 91.8101 91.7556ZM61.5546 62.3347L57.59 88.4172C57.59 89.0432 57.59 89.6692 58.0072 90.0864C58.4245 90.5037 59.0505 90.9211 59.6764 90.9211H91.8101C92.6448 90.9211 93.2707 90.5039 93.688 89.8779C94.1052 89.2519 94.1052 88.4172 93.688 87.5827L79.0818 62.7523L61.5546 62.3347Z" fill="#ADB3BA"/>
<path d="M39.6453 77.5668C39.6453 77.5668 40.0626 78.8188 42.5665 79.236C44.8617 79.6533 47.7831 81.3227 47.7831 81.3227C47.7831 81.3227 53.8341 69.8463 54.4601 67.5511C55.0861 65.256 55.5033 61.9173 55.5033 61.9173C55.5033 61.9173 62.3891 61.0826 69.2748 61.5001C76.1606 61.9173 85.9675 57.953 87.0109 55.6576C88.0542 53.3624 88.6802 48.3546 88.6802 48.3546L66.9796 50.0238C66.9796 50.0238 66.1449 51.4844 64.267 51.693C62.1804 51.9017 53.8341 52.1102 51.9562 52.9449C50.0782 53.5709 48.2003 53.7796 47.3656 57.3268C46.5311 60.8741 42.7752 70.2638 39.6453 77.5668Z" fill="#415A6B"/>
<path d="M73.0307 11.8392C73.0307 11.8392 69.2749 15.3863 68.4402 21.0201L71.7788 23.7328L75.7434 14.7603L73.0307 11.8392Z" fill="#CED6E0"/>
<path d="M88.4717 43.5553L85.9677 55.4489C85.9677 55.4489 66.7711 54.197 65.5192 51.9018C64.2672 49.6066 65.9364 39.7995 66.5624 37.5043C67.1884 35.4176 69.2751 30.2013 70.527 24.5675C71.779 18.9336 75.7436 14.3431 75.7436 14.3431L76.9955 14.5518C76.9955 14.5518 80.5427 16.4297 81.7946 17.2644C83.0466 18.0991 85.9677 21.6463 86.5937 23.3155C86.8022 25.1934 88.4717 43.5553 88.4717 43.5553Z" fill="#344A5E"/>
<path d="M74.7001 12.8824C74.7001 12.8824 73.2395 13.7171 71.9875 18.099C70.5268 22.4808 69.4836 27.6974 68.8576 29.5753C68.2316 31.4533 66.5624 37.5043 66.5624 37.5043C66.5624 37.5043 69.4836 30.2013 70.3183 27.2799C70.9443 24.3588 72.4049 17.473 76.9953 14.5517L74.7001 12.8824Z" fill="#415A6B"/>
<path d="M58.2159 62.3347C58.2159 62.3347 60.9286 60.0395 62.8065 57.5356C64.6844 55.0317 70.3183 47.7286 75.5348 45.642C80.7514 43.5553 94.9401 40.6342 94.9401 40.6342C94.9401 40.6342 92.6449 49.8151 92.2275 53.571C91.8102 57.3268 89.3063 63.7953 81.7946 64.4213C74.2826 64.8386 58.2159 62.3347 58.2159 62.3347Z" fill="#66C6B9"/>
<path d="M73.0307 11.4219C72.4048 12.0479 69.9008 12.4651 69.2749 11.6306C68.6489 10.5874 66.5622 9.96142 65.7277 10.7959C64.893 11.8392 65.519 13.2998 65.519 13.2998L64.4758 13.7171C64.4758 13.7171 64.267 13.0911 63.8498 12.6739C63.4325 12.0479 61.9719 11.8392 61.9719 11.0047C61.9719 10.17 61.1372 8.70947 59.8852 8.50074C58.6332 8.29202 56.964 9.12672 56.964 9.12672C56.964 9.12672 55.5033 8.70947 55.9208 7.45751C56.3381 6.20556 59.2594 1.40646 63.0153 0.154499C66.7712 -0.680203 70.9443 2.03243 71.9877 4.32762C72.8222 6.62261 73.0307 11.4219 73.0307 11.4219Z" fill="#415A6B"/>
<path d="M66.1449 19.9768C66.7709 19.7681 67.1882 19.3509 67.6056 19.5596C67.8143 19.5596 68.0229 19.7683 68.2316 19.7683C68.8576 17.0557 68.4403 13.9258 68.4403 13.9258C68.4403 16.4295 66.1449 19.9768 66.1449 19.9768Z" fill="#F7B64C"/>
<path d="M46.3224 34.3744C46.3224 34.3744 47.9916 34.1657 48.6176 35.0004C49.2435 35.8351 49.2435 38.5475 47.1569 39.1735H51.5387C51.5387 39.1735 51.956 36.6696 50.704 35.4176C49.4523 34.1657 48.2003 33.9571 46.3224 34.3744Z" fill="#F3F3F3"/>
<path d="M51.9562 29.5753V36.461C51.5389 36.6697 51.1215 36.8783 50.9129 37.2957C50.287 36.2525 49.4523 34.7918 47.5743 34.3746C47.3656 32.9139 47.1571 31.8706 47.1571 31.0359C47.1571 30.6187 47.1571 30.2012 47.1571 29.784H51.9562V29.5753Z" fill="#415A6B"/>
<path d="M59.0506 41.0514C59.0506 41.0514 58.2159 40.8427 57.1727 40.8427C56.1295 40.8427 55.2948 41.2599 54.4601 40.8427C53.8341 40.4254 53.6254 40.2167 52.9994 40.4254C52.5821 40.6342 52.3734 40.8427 52.1647 40.8427C51.956 40.8427 51.7474 41.0514 51.7474 40.8427C51.5387 40.634 51.1215 40.4254 51.1215 40.2167C51.1215 40.2167 50.7042 39.7995 50.9127 39.5907C50.9127 39.5907 50.704 39.1735 50.704 38.9648C50.704 38.9648 49.8693 38.756 50.2868 37.9215C50.704 37.0868 51.7474 36.6696 52.1647 36.2523C52.7907 35.8351 53.2079 35.6263 53.6254 35.8351C54.2513 36.0438 56.1293 37.087 56.5465 37.087C56.9638 37.2957 62.5976 37.2957 62.5976 37.2957L62.3889 41.0516H59.0506V41.0514Z" fill="#FFD15C"/>
<path d="M61.5546 36.6696H59.4679C59.4679 36.6696 58.6332 40.0082 59.0507 42.0946L62.8065 42.7206L61.5546 36.6696Z" fill="#F3F3F3"/>
<path d="M72.1962 29.5753C72.1962 29.5753 71.153 23.5242 72.6135 20.6028C74.074 17.6815 78.456 17.6817 80.3339 19.5596C82.2119 21.4375 83.6725 25.8194 83.4638 28.532C83.2551 31.2447 81.5859 33.9571 81.5859 36.0438C81.5859 38.1304 80.9599 38.9649 80.1252 39.7996C79.4992 40.6343 78.2473 42.3035 77.4126 42.7208C76.5779 42.9295 60.9284 43.9728 61.1371 43.764C61.3459 43.5553 60.5112 38.339 60.7199 36.6696C60.7199 36.6696 65.9364 36.4608 66.7709 36.4608C67.6056 36.6696 68.0229 36.4608 68.6489 36.0436C69.2749 35.8348 69.2748 35.6263 69.6921 35.8348C70.1094 36.0436 70.9441 36.0436 71.3613 35.8348C71.7786 35.6261 72.196 35.0001 72.196 35.0001C72.196 35.0001 71.57 32.2875 71.9873 31.6615C72.4047 31.0357 72.1962 29.5753 72.1962 29.5753Z" fill="#415A6B"/>
<path d="M38.8106 25.4019L37.5587 28.5318L35.472 25.1932C37.7672 24.5672 38.8106 23.3152 38.8106 23.3152C38.8106 23.9414 38.8106 24.5674 38.8106 25.4019Z" fill="white"/>
<path d="M34.846 25.1934C34.846 25.1934 34.0113 25.8194 33.5941 26.6541C33.1768 27.4888 32.7594 28.1148 32.7594 28.1148L31.7161 26.0281C31.5074 24.1502 31.2989 22.481 30.8814 20.603C30.8816 21.0201 32.9681 24.5674 34.846 25.1934Z" fill="white"/>
<path d="M29.8382 17.8902H30.2555C30.2555 17.8902 29.4208 16.6382 29.8382 15.8035C30.2557 14.9688 29.0035 12.4649 30.4642 12.8823C31.9249 13.2996 35.472 12.0476 36.5153 11.0044C37.5585 9.96118 37.9759 9.96118 38.3932 10.3784C38.8104 10.7957 39.2279 12.4651 39.2279 12.4651C39.2279 12.4651 38.8106 10.7959 38.3932 9.75245C37.9759 8.70922 38.8104 7.66579 35.2633 6.62256C31.7162 5.57933 28.5863 7.03982 27.5428 9.75245C26.4994 12.4651 27.7516 15.1775 28.5861 16.0122C29.2122 16.6382 29.8382 17.8902 29.8382 17.8902Z" fill="#415A6B"/>
<path d="M22.5352 37.2955L26.2911 37.5043C26.2911 37.5043 25.0391 38.1302 25.0391 40.0082C25.0391 41.8861 25.4564 41.8861 25.4564 41.8861L19.1966 40.8429C19.4053 41.0514 22.118 37.2955 22.5352 37.2955Z" fill="#F3F3F3"/>
<path d="M25.2478 37.2956C22.9526 38.3388 22.1179 39.1735 21.7007 41.6774L11.0591 41.0515C11.0591 41.0515 11.2678 36.6696 11.4763 35.4177C11.6848 34.1657 12.5195 32.079 13.7715 30.8271C14.8147 29.5751 17.1101 26.4452 17.3186 25.8193C17.5274 25.1933 18.1533 24.5673 18.3619 24.1501C18.5706 23.7328 18.9878 22.2721 19.1966 21.0202C19.4053 19.5595 20.6573 19.351 20.6573 19.351C20.6573 19.351 21.7005 21.0202 21.492 23.5241C21.492 26.2367 22.9526 28.5319 22.9526 30.2011C22.9526 30.6184 22.7439 31.4531 22.7439 32.705L21.0747 36.4609L21.7007 36.6696L25.2478 37.2956Z" fill="#415A6B"/>
<path d="M32.7596 44.39H29.421V86.9565H32.7596V44.39Z" fill="#F3705A"/>
<path d="M60.9286 43.9728H1.46068C0.625978 43.9728 0 43.3468 0 42.5121C0 41.6774 0.625978 41.0514 1.46068 41.0514H60.9286C61.7633 41.0514 62.3893 41.6774 62.3893 42.5121C62.3891 43.3468 61.7631 43.9728 60.9286 43.9728Z" fill="#F3705A"/>
<path d="M60.9286 43.9728C41.5233 45.4335 21.7007 45.2247 1.46066 43.9728H60.9286Z" fill="#F05540"/>
<path d="M48.6176 89.669H13.5628C13.5628 88.2083 14.8147 86.9564 16.2754 86.9564H45.9051C47.3656 86.9566 48.6176 88.2085 48.6176 89.669Z" fill="#F3705A"/>
<path d="M45.2791 87.5825L41.106 89.0432L38.1849 85.2873C38.1849 85.2873 39.8541 83.6181 40.6888 81.9487C41.106 81.114 41.732 80.0708 42.1495 79.2361H42.3582C44.2361 79.6533 46.5313 80.6968 47.1573 81.3227C46.5311 82.366 45.0704 85.4959 45.2791 87.5825Z" fill="#E8EAE9"/>
<path d="M28.3778 90.5037H26.9171C26.9171 90.5037 26.2911 91.3384 26.4998 91.547C26.7085 91.7557 31.0904 93.4249 34.0116 94.0509C36.7242 94.6768 40.4801 93.6336 41.106 93.0076V94.0509H45.2792C45.9051 94.0509 46.3224 93.6336 46.3224 93.0076V91.547L44.8617 90.5037H28.3778Z" fill="#344A5E"/>
<path d="M38.3934 84.8699C38.3934 84.8699 39.4366 84.8699 40.0626 85.9132C40.6886 86.9564 41.7318 87.5824 42.5665 87.7911C43.4012 87.9998 45.2792 87.1651 45.4877 86.5391C45.4877 86.5391 46.3224 90.0863 46.1137 91.547C46.1137 91.547 42.775 91.547 40.4799 92.5902C37.9759 93.4249 37.1412 94.0509 34.4288 93.4249C31.7162 92.7989 27.3343 91.1297 26.9171 90.5037C26.9171 90.5037 28.795 90.295 30.6729 90.0865C32.5509 89.878 34.4288 87.7913 35.6808 86.7479C36.9327 85.4959 38.3934 84.8699 38.3934 84.8699Z" fill="#415A6B"/>
<path d="M46.1137 29.5753H26.2911C25.6651 29.5753 25.2478 29.9925 25.2478 30.6185L26.7085 41.0514H45.4879L46.9484 30.6185C47.1571 30.2012 46.5311 29.5753 46.1137 29.5753Z" fill="#CED6E0"/>
<path d="M36.3067 36.0436C36.8829 36.0436 37.35 35.7633 37.35 35.4176C37.35 35.0719 36.8829 34.7916 36.3067 34.7916C35.7306 34.7916 35.2635 35.0719 35.2635 35.4176C35.2635 35.7633 35.7306 36.0436 36.3067 36.0436Z" fill="#ADB3BA"/>
</svg>
