<svg width="100" height="100" viewBox="0 0 100 100" fill="none" xmlns="http://www.w3.org/2000/svg">
<path d="M50 100C77.6142 100 100 77.6142 100 50C100 22.3858 77.6142 0 50 0C22.3858 0 0 22.3858 0 50C0 77.6142 22.3858 100 50 100Z" fill="#90DFAA"/>
<path d="M50 86.2205C70.004 86.2205 86.2205 70.004 86.2205 50C86.2205 29.996 70.004 13.7795 50 13.7795C29.996 13.7795 13.7795 29.996 13.7795 50C13.7795 70.004 29.996 86.2205 50 86.2205Z" fill="#2C9984"/>
<path d="M36.2992 42.2834C36.9292 40.7086 36.6929 39.2126 35.9055 38.8976C35.748 38.8189 35.5118 38.8189 35.2756 38.8976C34.4095 39.1338 33.4646 39.0551 32.5984 38.7401L29.6851 37.6378L28.189 41.496L31.1024 42.5984C31.9685 42.9133 32.7559 43.4645 33.2284 44.2519C33.3071 44.4094 33.4646 44.5669 33.7008 44.6456C34.5669 44.8819 35.6693 43.8582 36.2992 42.2834Z" fill="white"/>
<path d="M36.2992 57.559C35.6693 55.9842 34.5669 54.9605 33.7795 55.2755C33.6221 55.3542 33.4646 55.5117 33.3071 55.6692C32.8347 56.4566 32.0473 56.929 31.1811 57.3228L28.2677 58.4251L29.6851 62.2834L32.5984 61.181C33.4646 60.8661 34.4095 60.7086 35.2756 61.0235C35.5118 61.1023 35.6693 61.1023 35.9055 61.0235C36.6929 60.6298 36.9291 59.1338 36.2992 57.559Z" fill="white"/>
<path d="M16.4567 40.3937H6.77167V58.6614H16.4567V40.3937Z" fill="#F9B54C"/>
<path d="M33.7008 38.0315L31.2598 44.1733H31.1811C30.9449 44.0945 30.7087 44.0158 30.4724 43.937C30.4724 43.937 22.126 40.6299 22.0472 40.6299C21.7323 40.6299 20.1575 39.8425 20.1575 41.9685C20.1575 41.9685 19.9213 46.2205 19.7638 47.9528H9.92126C10.2362 44.9607 11.9685 36.5355 19.4488 34.4882C20.6299 34.1733 21.811 34.1733 22.9921 34.3307C23.3071 34.4095 32.8347 37.6378 32.8347 37.6378C33.1496 37.7953 33.4646 37.874 33.7008 38.0315Z" fill="#2B3B4E"/>
<path d="M32.9134 62.2835C32.9134 62.2835 23.3858 65.5906 23.0709 65.5906C21.8898 65.7481 20.7087 65.7481 19.5276 65.4331C11.9685 63.3859 10.2362 54.9607 9.92126 51.9686H19.8425C19.9213 53.7009 20.2362 57.9528 20.2362 57.9528C20.2362 60.0788 21.811 59.2914 22.126 59.2914C22.2047 59.2914 29.7638 56.2993 30.4724 56.0631L32.9134 62.2835Z" fill="#2B3B4E"/>
<path d="M8.81889 41.1024V57.8741C8.81889 59.3701 7.55905 60.63 6.06299 60.63V38.3465C7.55905 38.3465 8.81889 39.6063 8.81889 41.1024Z" fill="#FFD05B"/>
<path d="M21.4174 53.307L14.8032 57.1653L8.18903 53.307V45.6692L14.8032 41.8897L21.4174 45.6692V53.307Z" fill="#324A5E"/>
<path d="M63.7008 42.2834C63.0709 40.7086 63.3071 39.2126 64.0945 38.8976C64.252 38.8189 64.4882 38.8189 64.7245 38.8976C65.5906 39.1338 66.5355 39.0551 67.4016 38.7401L70.315 37.6378L71.8111 41.496L68.8977 42.5984C68.0315 42.9133 67.2441 43.4645 66.7717 44.2519C66.693 44.4094 66.5355 44.5669 66.2993 44.6456C65.4331 44.8819 64.3308 43.8582 63.7008 42.2834Z" fill="white"/>
<path d="M63.7008 57.559C64.3308 55.9842 65.4331 54.9605 66.2205 55.2755C66.378 55.3542 66.5355 55.5117 66.693 55.6692C67.1654 56.4566 67.9528 56.929 68.8189 57.3228L71.7323 58.4251L70.315 62.2834L67.3229 61.1023C66.4567 60.7873 65.5119 60.6298 64.6457 60.9448C64.4095 61.0235 64.252 61.0235 64.0158 60.9448C63.3071 60.6298 63.0709 59.1338 63.7008 57.559Z" fill="white"/>
<path d="M93.2283 40.3937H83.5433V58.6614H93.2283V40.3937Z" fill="#F9B54C"/>
<path d="M66.2992 38.0315L68.7402 44.1733H68.8189C69.0551 44.0945 69.2914 44.0158 69.5276 43.937C69.5276 43.937 77.874 40.6299 77.9528 40.6299C78.2677 40.6299 79.8425 39.8425 79.8425 41.9685C79.8425 41.9685 80.0788 46.2205 80.2362 47.9528H90.1575C89.8425 44.9607 88.1103 36.5355 80.6299 34.4882C79.4488 34.1733 78.2677 34.1733 77.0866 34.3307C76.7717 34.4095 67.2441 37.6378 67.2441 37.6378C66.8504 37.7953 66.5354 37.874 66.2992 38.0315Z" fill="#FF7058"/>
<path d="M67.0867 62.2835C67.0867 62.2835 76.6142 65.5906 76.9292 65.5906C78.1103 65.7481 79.2914 65.7481 80.4725 65.4331C88.0316 63.3071 89.6851 54.882 90.0001 51.9686H80.0788C80.0001 53.7009 79.6851 57.9528 79.6851 57.9528C79.6851 60.0788 78.1103 59.2914 77.7953 59.2914C77.7166 59.2914 70.1575 56.2993 69.4489 56.0631L67.0867 62.2835Z" fill="#FF7058"/>
<path d="M91.1811 41.1024V57.8741C91.1811 59.3701 92.441 60.63 93.937 60.63V38.3465C92.441 38.3465 91.1811 39.6063 91.1811 41.1024Z" fill="#FFD05B"/>
<path d="M78.5827 53.307L85.1968 57.1653L91.811 53.307V45.6692L85.1968 41.8897L78.5827 45.6692V53.307Z" fill="#324A5E"/>
<path d="M57.7166 36.2993C59.2914 36.9292 60.7875 36.693 61.1024 35.9056C61.1812 35.7481 61.1812 35.5119 61.1024 35.2756C60.8662 34.4095 60.9449 33.4646 61.2599 32.5985L62.3623 29.6851L58.504 28.189L57.4016 31.1024C57.0867 31.9686 56.5355 32.756 55.7481 33.2284C55.5906 33.3071 55.4331 33.4646 55.3544 33.7008C55.1182 34.567 56.1418 35.6693 57.7166 36.2993Z" fill="white"/>
<path d="M42.441 36.2993C44.0158 35.6693 45.0394 34.567 44.7245 33.7796C44.6457 33.6221 44.4882 33.4646 44.3308 33.3071C43.5434 32.8347 43.0709 32.0473 42.6772 31.1811L41.5748 28.2678L37.7166 29.6851L38.8189 32.5985C39.1339 33.4646 39.2914 34.4095 38.9764 35.2756C38.8977 35.5119 38.8977 35.6693 38.9764 35.9056C39.3701 36.693 40.8662 36.9292 42.441 36.2993Z" fill="white"/>
<path d="M59.6063 6.77167H41.3386V16.4567H59.6063V6.77167Z" fill="#F9B54C"/>
<path d="M61.9685 33.7008L55.8268 31.2598V31.1811C55.9055 30.9449 55.9842 30.7087 56.063 30.4724C56.063 30.4724 59.3701 22.126 59.3701 22.0472C59.3701 21.7323 60.1575 20.1575 58.0315 20.1575C58.0315 20.1575 53.7795 19.9213 52.0472 19.7638V9.92126C55.0394 10.2362 63.4646 11.9685 65.5118 19.4488C65.8268 20.6299 65.8268 21.811 65.6693 22.9921C65.5906 23.3071 62.3622 32.8347 62.3622 32.8347C62.2047 33.1496 62.126 33.4646 61.9685 33.7008Z" fill="#E6E9EE"/>
<path d="M37.7166 32.9134C37.7166 32.9134 34.4095 23.3858 34.4095 23.0709C34.252 21.8898 34.252 20.7087 34.567 19.5276C36.6929 11.9685 45.1181 10.315 48.0315 10V19.9213C46.2992 20 42.0473 20.315 42.0473 20.315C39.9213 20.315 40.7087 21.8898 40.7087 22.2047C40.7087 22.2835 43.7008 29.8425 43.937 30.5512L37.7166 32.9134Z" fill="#E6E9EE"/>
<path d="M58.8976 8.81889H42.126C40.6299 8.81889 39.3701 7.55905 39.3701 6.06299H61.5748C61.6535 7.55905 60.3937 8.81889 58.8976 8.81889Z" fill="#FFD05B"/>
<path d="M46.6929 21.4174L42.8347 14.8032L46.6929 8.18903H54.3307L58.1102 14.8032L54.3307 21.4174H46.6929Z" fill="#324A5E"/>
<path d="M57.7166 63.7007C59.2914 63.0708 60.7875 63.307 61.1024 64.0944C61.1812 64.2519 61.1812 64.4881 61.1024 64.7244C60.8662 65.5905 60.9449 66.5354 61.2599 67.4015L62.3623 70.3149L58.504 71.811L57.4016 68.8976C57.0867 68.0315 56.5355 67.2441 55.7481 66.7716C55.5906 66.6929 55.4331 66.5354 55.3544 66.2992C55.1182 65.433 56.1418 64.3307 57.7166 63.7007Z" fill="white"/>
<path d="M42.441 63.7007C44.0158 64.3307 45.0394 65.433 44.7244 66.2204C44.6457 66.3779 44.4882 66.5354 44.3307 66.6929C43.5433 67.1653 43.0709 67.9527 42.6772 68.8189L41.5748 71.7322L37.7166 70.3149L38.8189 67.4015C39.1339 66.5354 39.2914 65.5905 38.9764 64.7244C38.8977 64.4881 38.8977 64.3307 38.9764 64.0944C39.3701 63.307 40.8662 63.0708 42.441 63.7007Z" fill="white"/>
<path d="M59.6063 83.5433H41.3386V93.2284H59.6063V83.5433Z" fill="#F9B54C"/>
<path d="M61.9685 66.2992L55.8268 68.7401V68.8189C55.9055 69.0551 55.9842 69.2913 56.063 69.5275C56.063 69.5275 59.3701 77.874 59.3701 77.9527C59.3701 78.2677 60.1575 79.8425 58.0315 79.8425C58.0315 79.8425 53.7795 80.0787 52.0472 80.2362V90.1575C55.0394 89.8425 63.4646 88.1102 65.5118 80.6299C65.8268 79.4488 65.8268 78.2677 65.6693 77.0866C65.5906 76.7716 62.3622 67.2441 62.3622 67.2441C62.2047 66.8504 62.126 66.5354 61.9685 66.2992Z" fill="#2B3B4E"/>
<path d="M37.7166 67.0865C37.7166 67.0865 34.4095 76.6141 34.4095 76.9291C34.252 78.1102 34.252 79.2913 34.567 80.4724C36.6929 88.0314 45.1181 89.685 48.0315 89.9999V80.0787C46.2992 79.9999 42.0473 79.685 42.0473 79.685C39.9213 79.685 40.7087 78.1102 40.7087 77.7952C40.7087 77.7165 43.7008 70.1574 43.937 69.4488L37.7166 67.0865Z" fill="#2B3B4E"/>
<path d="M58.8976 91.1811H42.126C40.6299 91.1811 39.3701 92.4409 39.3701 93.937H61.5748C61.6535 92.4409 60.3937 91.1811 58.8976 91.1811Z" fill="#FFD05B"/>
<path d="M46.6929 78.5827L42.8347 85.1969L46.6929 91.811H54.3307L58.1102 85.1969L54.3307 78.5827H46.6929Z" fill="#324A5E"/>
</svg>
