<svg width="100" height="58" viewBox="0 0 100 58" fill="none" xmlns="http://www.w3.org/2000/svg">
<path d="M22.1236 34.6903L17.543 30.3178L13.7952 22.614L18.1676 22.4058L18.3757 22.614L22.1236 34.6903Z" fill="#ADB3BA"/>
<path d="M17.1264 19.9072C17.1264 19.9072 17.9594 26.3618 18.584 28.0275C19.2086 29.6931 21.4989 33.0246 22.1235 34.8985C22.7482 36.7724 22.9565 39.4792 22.9565 39.4792C22.9565 39.4792 23.1647 33.8575 22.3318 30.9426C21.2908 27.8194 19.625 25.7372 19.2086 23.8633C18.584 21.9894 18.3757 20.1154 17.1264 19.9072Z" fill="#415A6B"/>
<path d="M81.6725 5.33221C81.6725 5.33221 79.1739 8.24713 78.5493 10.7457C78.5493 10.7457 78.341 11.3703 78.5493 11.7867C78.7575 12.203 78.7576 12.4113 78.341 13.036C77.9246 13.6606 77.0917 14.4935 77.5081 15.1182C77.9244 15.7428 78.7574 15.9511 78.7574 15.9511C78.7574 15.9511 77.9244 17.4086 78.7574 17.825C78.7574 17.825 78.1327 18.2413 78.7574 19.0743C79.382 19.6989 78.1327 21.3645 80.6313 22.1975C83.3381 22.8221 83.9627 23.655 84.3791 24.2796C84.5874 24.9043 84.5874 24.9043 84.5874 24.9043L93.5406 21.9894C93.5406 21.9894 92.916 20.7401 92.916 18.8662C92.916 16.9923 92.916 16.9923 92.916 16.9923C92.916 16.9923 88.3354 5.95685 81.6725 5.33221Z" fill="#FFD15C"/>
<path d="M80.4232 33.2328C80.4232 33.2328 80.0068 32.1918 80.6315 30.526C81.2561 28.8603 81.6725 29.485 82.089 27.4028C82.2973 25.1125 82.089 24.2796 82.089 24.2796L86.8779 22.614L96.6638 28.6521C96.6638 28.6521 97.0802 37.1887 96.0392 41.1448C94.9982 44.8927 91.875 48.8488 91.875 48.8488L80.4232 33.2328Z" fill="#CED6E0"/>
<path d="M82.089 24.2796C82.089 24.2796 82.5054 24.0713 82.5054 24.9042C82.7137 25.7371 83.5464 28.2357 83.5464 28.652C83.5464 29.0684 83.3381 29.0684 83.3381 29.0684C83.3381 29.0684 87.7106 26.3616 89.7928 25.7369C91.875 24.904 94.5816 23.0301 94.5816 23.0301C94.5816 23.0301 94.5816 21.7808 94.3733 21.1562C94.3733 20.9479 93.957 20.7398 93.7487 20.7398C89.7928 21.5727 85.8369 22.6139 82.089 24.2796Z" fill="#F3F3F3"/>
<path d="M76.4671 34.6902L77.5081 56.9689C77.5081 56.9689 18.1674 58.0099 18.1674 56.9689C18.1674 55.9279 29.6192 31.7751 29.6192 31.7751L76.4671 34.6902Z" fill="#F3705A"/>
<path d="M48.5666 34.4821L47.5256 35.1067L46.6927 37.1889C46.6927 37.3972 46.4844 37.6052 46.4844 37.6052C46.4844 37.8135 46.4844 38.0216 46.6927 38.0216L55.854 38.2299C56.2703 38.2299 56.4786 38.0216 56.4786 37.6052L56.2703 35.315L48.5666 34.4821Z" fill="#CED6E0"/>
<path d="M56.4789 32.3999H47.5257V35.3148H56.4789V32.3999Z" fill="#ADB3BA"/>
<path d="M68.9714 34.2738L32.7424 33.6492C32.1177 33.6492 31.7014 33.2328 31.7014 32.6082V7.62267C31.7014 6.99803 32.1177 6.58167 32.7424 6.58167L70.0124 7.2063C70.6371 7.2063 71.0534 7.62267 71.0534 8.2473L70.2205 33.0246C70.0126 33.8575 69.5963 34.2738 68.9714 34.2738Z" fill="#ADB3BA"/>
<path d="M70.8455 8.4554L70.0126 30.7341L31.4933 29.4848V7.62248C31.4933 6.99784 31.9097 6.58148 32.5343 6.58148L69.8044 7.20612C70.429 7.4144 71.0536 7.83076 70.8455 8.4554Z" fill="#ADB3BA"/>
<path d="M70.0126 7.41437L32.7426 6.78973C32.1179 6.78973 31.7016 7.20609 31.7016 7.83073V29.6931L70.2209 30.9424L70.8455 8.45537C71.0536 7.83073 70.429 7.41437 70.0126 7.41437Z" fill="#415A6B"/>
<path d="M33.367 8.45538L33.5753 27.8192L68.555 29.0685L69.1797 9.08002L33.367 8.45538Z" fill="white"/>
<path d="M70.2207 30.7343V33.2329C70.2207 33.8575 69.8043 34.2739 69.1797 34.2739L32.9507 33.6492C32.326 33.6492 31.9097 33.2329 31.9097 32.6082V29.485L70.2207 30.7343Z" fill="#CED6E0"/>
<path d="M37.3231 31.1507C37.3231 31.1507 38.7807 30.7343 39.4053 30.1097C40.03 29.485 39.8217 29.2768 40.03 29.0687C40.2382 28.8604 41.071 28.6523 41.071 28.6523C41.071 28.6523 43.1532 28.6523 42.3202 27.1948L41.4873 27.403C41.4873 27.403 41.279 27.403 40.8627 27.403C40.4463 27.403 40.0298 27.403 39.197 27.1948C38.5724 27.1948 37.9478 26.9865 37.5314 27.403C37.115 27.6113 36.4904 28.444 36.2821 28.6523C35.8658 28.8606 32.326 30.1099 32.326 30.1099L33.9917 33.2331C33.9917 33.2331 36.4902 33.2331 37.9478 32.6084C39.4053 32.1921 40.6546 31.1509 41.071 30.3182C41.4873 29.4852 41.4873 28.6525 41.4873 28.6525C41.4873 28.6525 39.8217 30.9428 38.7805 31.3594C37.7397 31.9836 37.3231 31.1507 37.3231 31.1507Z" fill="#FFD15C"/>
<path d="M31.7014 30.526L33.367 29.9014C33.367 29.9014 33.7834 33.0246 35.0327 34.2738L30.6602 36.1478L31.7014 30.526Z" fill="white"/>
<path d="M36.4902 32.6082L38.9888 31.9836L41.4873 30.1096L41.9037 29.2767V28.2357L38.7805 28.8604C38.989 28.6521 35.2409 31.567 36.4902 32.6082Z" fill="#FFD15C"/>
<path d="M38.5724 31.7753L38.9888 32.1917C39.197 32.1917 39.8217 31.567 41.0709 30.1095C41.2792 29.9012 41.4873 29.6931 41.6956 29.4848C42.3202 28.6519 42.9449 27.8192 43.7778 26.9863L44.1941 26.5699C44.6105 25.9453 45.0271 25.3206 45.4434 24.4877C44.8188 24.9041 44.1941 25.3206 43.5695 25.9453L43.1531 26.3616C42.5285 27.1946 41.6956 28.0273 41.0709 28.8602C40.8627 29.0685 40.6546 29.2766 40.4463 29.4848C38.9889 30.7343 38.7807 31.3589 38.5724 31.7753Z" fill="#415A6B"/>
<path d="M43.9861 26.3618C44.1943 26.1535 44.1943 25.9454 44.4024 25.9454L43.7778 25.3208C43.5695 25.5291 43.5695 25.5291 43.3614 25.7372L42.9451 26.1535C42.9451 26.3618 42.7368 26.3618 42.7368 26.5699L43.3614 27.1945C43.3614 26.9862 43.5697 26.9862 43.5697 26.7782L43.9861 26.3618Z" fill="#4ABAA5"/>
<path d="M38.5724 31.9836L38.9888 32.1919L38.7805 32.4001C38.7805 32.4001 38.5722 32.6084 38.3641 32.4001C38.5724 32.1917 38.3641 31.9836 38.5724 31.9836Z" fill="#F3705A"/>
<path d="M39.6135 30.1097C39.6135 30.318 39.6135 30.526 39.8217 30.7343C40.03 30.9426 40.2381 30.9426 40.4464 30.7343C40.2381 30.9426 40.03 31.1507 40.03 31.359C39.8217 31.359 39.8217 31.359 39.6137 31.5672C39.4054 31.5672 39.4054 31.5672 39.1973 31.5672C39.1973 31.5672 39.1973 31.359 39.1973 31.1509C39.1973 30.9426 39.1973 30.9426 39.1973 30.7345C39.1971 30.7343 39.4054 30.526 39.6135 30.1097Z" fill="#4ABAA5"/>
<path d="M40.2504 29.8556C39.5841 30.6475 39.1154 31.3495 39.2034 31.4236C39.2914 31.4976 39.9029 30.9157 40.5692 30.1237C41.2355 29.3318 41.7042 28.6298 41.6162 28.5557C41.5282 28.4817 40.9167 29.0636 40.2504 29.8556Z" fill="#4ABAA5"/>
<path d="M38.5724 31.359C38.5724 31.359 37.9478 31.7753 38.3641 32.4C38.7805 33.0246 40.0298 32.8163 40.238 32.6082C40.4463 32.4 40.6544 31.9836 40.6544 31.9836C40.6544 31.9836 41.4873 31.7753 41.4873 31.359C41.4873 30.9426 41.4873 30.9426 41.4873 30.9426C41.4873 30.9426 42.1119 30.7343 42.3202 30.318C42.5285 29.9016 42.112 29.485 42.112 29.485V29.2768C42.112 29.2768 43.1529 29.2768 43.1529 28.6521C43.1529 28.0275 42.7366 27.8192 42.7366 27.8192C42.7366 27.8192 41.0709 28.8602 41.6956 29.4849V29.6931C41.6956 29.6931 41.2792 29.9014 40.6546 29.9014C40.03 29.9014 40.03 29.9014 39.8217 29.9014C39.6134 29.9014 38.9888 30.3178 39.6134 30.7343C40.238 31.1507 40.0298 31.1507 40.0298 31.1507C40.0298 31.1507 39.6134 31.359 39.4051 31.1507C39.1968 30.9424 38.9888 30.9424 38.7805 31.1507C38.5724 30.9424 38.5724 31.359 38.5724 31.359Z" fill="#FFD15C"/>
<path d="M42.3203 27.4028L41.4873 27.611C41.4873 27.611 41.2791 27.611 40.8627 27.611C40.6544 27.611 40.2381 27.611 40.0298 27.611V29.2767C40.2381 29.0684 41.0708 28.8603 41.0708 28.8603C41.0708 28.8603 42.9449 28.8603 42.3203 27.4028Z" fill="#FFD15C"/>
<path d="M82.2971 29.9014C82.2971 29.9014 86.0449 28.4438 88.9598 28.6521C91.8747 28.8604 95.4145 32.1917 95.8308 36.5641C96.2472 40.9366 93.5406 45.3091 85.8366 47.3913C78.341 49.4735 77.5081 51.1391 77.5081 51.1391V56.9691H93.7487C93.7487 56.9691 100.203 36.7724 99.995 31.7753C99.7868 26.7782 94.7897 22.8221 94.7897 22.8221C94.7897 22.8221 91.2501 24.0714 88.5433 24.9043C85.8368 25.7372 82.9217 28.8604 82.2971 29.9014Z" fill="#415A6B"/>
<path d="M55.854 38.6463L55.2294 39.0627C55.2294 39.0627 54.6048 40.9366 54.6048 41.3529C54.6048 41.7693 55.2294 41.7693 55.4377 41.3529C55.646 40.9366 56.0623 39.6873 56.0623 39.6873L56.4787 39.0627C56.4787 39.0627 56.0623 40.1037 56.0623 40.7283C56.0623 41.3529 56.0623 41.7693 56.4787 41.9776C56.895 41.9776 57.1033 41.7693 57.1033 41.5612C57.1033 41.5612 57.3116 41.7695 57.5197 41.7695C57.936 41.7695 57.936 41.5612 57.936 41.3531C57.936 41.3531 58.1443 41.5614 58.3524 41.5614C58.5607 41.5614 58.7688 41.5614 58.7688 41.5614L59.1851 40.7285V39.0629L58.3522 38.0219L55.854 38.6463Z" fill="#FFD15C"/>
<path d="M56.6869 39.8956C56.6869 39.8956 55.854 40.1039 55.4376 40.7285C55.0213 41.1449 55.4376 41.7695 56.0623 41.7695C56.6869 41.7695 57.5198 41.5612 57.9362 41.1449C58.3526 40.9366 58.9772 40.5202 59.3938 40.5202C59.8101 40.5202 60.2267 40.9366 61.684 40.9366C63.1414 40.9366 65.6401 40.5202 66.8894 40.5202C68.1387 40.7285 68.1387 40.7285 68.1387 40.7285L66.6811 37.6053C66.6811 37.6053 64.1826 37.8136 63.5579 37.6053C62.9333 37.397 59.6018 36.5643 59.1855 36.356C58.5608 36.1478 58.3526 36.356 58.1445 36.5643C57.9362 36.7726 56.0623 37.8136 55.8542 38.0219C55.6459 38.2302 55.4378 39.0629 55.4378 39.0629L56.2708 39.4792C56.2708 39.4792 56.479 39.271 56.6871 39.0629C56.8952 38.8548 57.52 38.4382 57.52 38.4382C57.52 38.4382 58.353 38.4382 58.7693 38.4382L58.9776 39.0629C58.7691 38.8546 57.7279 39.6873 56.6869 39.8956Z" fill="#FFD15C"/>
<path d="M65.6402 41.3531C65.6402 41.3531 65.2238 38.4382 66.0565 37.6053L70.6373 37.8136C70.6373 37.8136 71.8865 37.3972 72.9275 37.3972C73.9685 37.3972 74.5932 37.1889 75.2178 37.1889C75.8425 36.9807 78.5493 36.356 78.5493 36.356L81.2561 40.9368C81.2561 40.9368 76.259 41.9778 74.1768 41.9778C72.0946 41.9778 70.429 41.7695 70.429 41.7695L65.6402 41.3531Z" fill="#CED6E0"/>
<path d="M72.5111 42.6024C72.5111 42.6024 72.3029 43.0188 72.7194 42.6024C73.1358 42.186 74.5933 41.7695 74.8016 41.3531C75.218 40.9368 76.4673 39.6875 76.8838 38.6463C77.3002 37.6053 77.3002 36.356 78.1331 35.5231C78.966 34.6902 80.4234 28.6521 84.5878 30.526C88.5439 32.3999 90.8341 36.9806 90.6259 40.1038C90.4176 43.4353 90.8341 44.8927 89.3766 46.1419C87.919 47.3912 82.7138 50.3061 79.5906 51.1391C76.4675 51.972 74.5935 52.3883 73.7606 52.8047C72.9277 53.013 70.6374 53.2211 69.5964 52.5964C68.5554 51.7635 67.9308 49.6815 68.5554 47.5993C69.1801 45.5171 69.1801 44.4761 69.1801 44.4761C69.1801 44.4761 69.5962 43.4351 72.5111 42.6024Z" fill="#F3F3F3"/>
<path d="M81.2561 15.951L82.7137 16.3674C82.7137 16.3674 82.5054 14.9098 83.5466 14.0771C84.5876 13.2442 86.2534 15.1181 87.2944 17.2003C88.3354 19.2825 92.7079 18.8659 92.7079 18.8659C92.7079 18.8659 92.7079 17.4084 93.7489 15.7427C94.7899 14.0771 96.2474 7.62244 91.2503 4.08288C86.2532 0.543332 80.8398 3.66652 80.8398 3.66652C80.8398 3.66652 79.7988 5.54044 81.048 6.16508C82.2973 6.78972 82.5056 6.37336 82.2973 7.41436C82.089 8.24727 81.2563 8.66363 81.048 9.49655C81.048 9.70483 81.048 10.1212 81.2563 10.3295C81.4644 10.9539 81.8808 12.2032 81.2561 15.951Z" fill="#415A6B"/>
<path d="M32.7424 29.9014C32.7424 29.9014 30.0356 30.7343 29.2028 31.1506C28.3699 31.567 28.5782 31.567 28.1618 31.7753C27.7455 31.7753 27.3289 31.7753 26.7043 31.9836C26.0796 32.1918 25.8714 32.3999 25.455 32.3999C25.0386 32.3999 24.6221 32.3999 23.9975 32.6082C23.5811 32.8165 22.3318 32.8165 22.3318 32.8165L19.4169 33.0248L21.2908 39.8958C21.2908 39.8958 26.4962 38.4382 27.9536 37.8136C29.6192 36.9807 33.9917 35.9397 33.9917 35.9397C33.9917 35.9397 31.9097 31.567 32.7424 29.9014Z" fill="#344A5E"/>
<path d="M24.414 8.03899C24.414 8.03899 23.7894 9.70463 23.5811 10.1212C23.1647 10.5375 23.3728 10.9541 23.5811 11.3705C23.7894 11.7868 24.414 12.6197 24.6221 12.828C24.8302 13.0363 24.6221 13.6609 24.2057 13.6609C23.7894 13.6609 23.3728 13.6609 23.3728 13.6609C23.3728 13.6609 23.7892 15.3266 22.9565 15.3266C22.9565 15.3266 23.3728 15.7429 22.9565 15.9512C22.5401 16.3676 23.3728 17.8251 21.0826 18.2415C18.7923 18.8661 16.7101 22.4057 16.7101 22.4057L9.4227 16.9922L9.83906 15.5347C9.83906 15.5347 11.713 7.83071 14.8362 6.37335C17.7511 5.12408 24.6221 5.54044 24.414 8.03899Z" fill="#FFD15C"/>
<path d="M9.83904 15.5347C9.83904 15.5347 14.2115 15.1183 14.4198 11.9951C14.8362 8.66366 18.1676 9.49658 18.3759 10.9541C18.5842 12.4117 18.7923 12.2034 18.7923 12.2034L19.8333 11.9951C19.8333 11.9951 18.7923 10.7459 20.0415 9.70485C21.2908 8.66386 21.9155 9.2885 22.3318 8.45558C22.3318 8.45558 21.9155 9.70486 21.2908 10.1212C21.2908 10.1212 23.1647 10.1212 23.7894 9.49658C24.414 8.87194 25.0386 7.62266 25.2469 6.37338C25.2469 5.12411 23.7894 2.83383 20.2498 1.58455C16.7103 0.335277 15.6691 -0.49764 12.3378 0.335277C9.00652 1.16819 8.38168 5.95702 8.38168 7.41458C8.1734 9.2883 9.2144 13.6608 9.83904 15.5347Z" fill="#415A6B"/>
<path d="M9.83901 15.5347C9.83901 15.5347 10.88 17.2003 12.7539 18.6579C14.6278 20.1154 18.1674 21.9893 18.1674 21.9893L16.0852 27.8194L8.38126 18.0334L9.83901 15.5347Z" fill="white"/>
<path d="M22.9564 46.3503C20.4579 51.7637 18.1676 56.7609 18.1676 57.1774H4.21728C4.21728 57.1774 2.13509 46.5586 1.09409 42.8107C0.261175 39.2712 -0.155185 32.4001 0.0530926 30.9426C0.469453 29.485 0.886009 28.8604 1.71873 26.3618C2.55165 23.655 2.75973 24.6962 4.63365 21.9894C6.50756 19.0745 7.96512 18.0333 7.96512 18.0333C7.96512 18.0333 18.584 30.1097 20.4579 33.0246C22.3318 35.7314 22.7482 41.9778 22.7482 41.9778V46.3503H22.9564Z" fill="#344A5E"/>
<path d="M13.7951 39.4792C14.0034 35.9396 12.7541 32.1918 11.0883 30.3179C9.42267 28.444 6.29947 28.2357 3.80092 30.9425C1.30236 33.6494 2.34336 38.0218 2.34336 38.0218C2.34336 38.0218 4.63364 44.0599 5.0502 46.1421C5.25847 48.2243 7.96511 52.3885 11.0883 54.2624C12.9622 55.3034 16.0854 56.1364 18.3757 56.761C18.792 55.72 19.8332 53.2214 21.2906 50.3063C17.9593 46.5583 13.5869 41.5612 13.7951 39.4792Z" fill="#415A6B"/>
<path d="M9.42271 16.3676C9.42271 16.3676 10.2556 18.8662 12.5459 21.1564C14.8362 23.4467 20.4579 31.3589 21.7072 33.6492C22.9565 35.9395 22.9565 41.7695 22.9565 41.7695C22.9565 41.7695 22.3318 37.6053 21.7072 35.7314C21.0826 33.8575 16.9184 28.8604 15.0445 27.1947C13.3788 25.7372 9.42271 21.1566 8.17343 19.0744C7.96515 18.4498 8.17343 18.0334 8.38171 17.6169L9.42271 16.3676Z" fill="#415A6B"/>
<path d="M46.6927 22.614V26.5699H45.6517V22.614H46.6927Z" fill="#66C6B9"/>
<path d="M48.983 18.4496V26.5699H47.942V18.4496H48.983Z" fill="#FFD15C"/>
<path d="M51.0652 24.2796V26.5699H50.0242V24.2796H51.0652Z" fill="#55C0EB"/>
<path d="M53.3556 21.9893V26.7782H52.3145V21.9893H53.3556Z" fill="#415A6B"/>
<path d="M55.4376 20.9482V26.7782H54.3966V20.7401L55.4376 20.9482Z" fill="#F3705A"/>
<path d="M57.7279 25.3206V26.7782H56.6869V25.3206H57.7279Z" fill="#FFD15C"/>
<path d="M59.8101 19.4908V26.9864L58.7691 26.7782V19.4908H59.8101Z" fill="#55C0EB"/>
<path d="M62.1004 24.0713V26.9864H61.0594V24.0713H62.1004Z" fill="#415A6B"/>
<path d="M64.1826 22.1974V26.9864H63.1416V21.9893L64.1826 22.1974Z" fill="#66C6B9"/>
<path d="M66.4729 23.4467V27.1945L65.4319 26.9865V23.4467H66.4729Z" fill="#F3705A"/>
<path d="M40.03 11.7869C38.7807 11.7869 37.5314 12.2032 36.6985 13.0361L40.03 16.5757V11.7869Z" fill="#415A6B"/>
<path d="M43.3613 13.2444C42.5283 12.4115 41.2791 11.7869 40.0298 11.7869V16.5757L43.3613 13.2444Z" fill="#66C6B9"/>
<path d="M40.0299 16.5757L41.2792 21.1564C43.3614 20.5318 44.8188 18.6579 44.8188 16.5757C44.8188 15.3264 44.4024 14.0771 43.3612 13.2442L40.0299 16.5757Z" fill="#F3705A"/>
<path d="M36.6985 13.2444C35.8655 14.0774 35.2409 15.3266 35.2409 16.784C35.2409 19.0743 36.9065 20.9482 38.9887 21.5728L40.0297 16.784L36.6985 13.2444Z" fill="#55C0EB"/>
<path d="M38.989 21.3647C39.4053 21.3647 39.6136 21.3647 40.03 21.3647C40.4463 21.3647 40.8629 21.3647 41.2792 21.1564L40.03 16.5757L38.989 21.3647Z" fill="#FFD15C"/>
</svg>
